<?xml version="1.0" encoding="UTF-8"?>
<svg width="56px" height="56px" viewBox="0 0 56 56" version="1.1" xmlns="http://www.w3.org/2000/svg" xmlns:xlink="http://www.w3.org/1999/xlink">
    <title>头像</title>
    <g id="开发者体验优化专项" stroke="none" stroke-width="1" fill="none" fill-rule="evenodd">
        <g id="头像">
            <circle id="Oval-3" fill="#BBB2C8" cx="28" cy="28" r="28"></circle>
            <path d="M27.9068764,36 C36.5695881,36 41.0297319,39.407618 43.4242054,42.4981062 L43.8624317,43.091305 C43.9313617,43.189178 43.9982856,43.286471 44.0632753,43.3830589 L44.411329,43.9220007 L44.7208746,44.4407927 L44.9948125,44.9343792 L45.3452999,45.6164391 L45.7924973,46.5555556 L45.9161373,46.8418336 C41.2526554,51.2775892 34.9442543,54 28,54 C20.9880292,54 14.6243729,51.2242354 9.94790571,46.7115806 L10.0212555,46.5555556 L10.4824683,45.6164391 L10.8384747,44.9343792 L11.1150261,44.4407927 L11.42641,43.9220007 L11.7755933,43.3830589 L11.9767706,43.091305 L11.9767706,43.091305 L12.4151638,42.4981062 C14.8088769,39.407618 19.2441647,36 27.9068764,36 Z" id="路径" fill-opacity="0.9" fill="#FFFFFF"></path>
            <path d="M27.9068764,13 C22.6601713,13 18.4068764,17.2532949 18.4068764,22.5 C18.4068764,27.7467051 22.6601713,32 27.9068764,32 C33.1535815,32 37.4068764,27.7467051 37.4068764,22.5 C37.4068764,17.2532949 33.1535815,13 27.9068764,13 Z" id="路径" fill-opacity="0.9" fill="#FFFFFF" fill-rule="nonzero"></path>
        </g>
    </g>
</svg>